<svg xmlns="http://www.w3.org/2000/svg" xmlns:xlink="http://www.w3.org/1999/xlink" width="24" height="24" viewBox="0 0 24 24">
    <defs>
        <path id="a" d="M12 22c1.1 0 2-.923 2-2.051h-4c0 1.128.89 2.051 2 2.051zm6-6.154v-5.128c0-3.149-1.64-5.785-4.5-6.482v-.698C13.5 2.688 12.83 2 12 2s-1.5.687-1.5 1.538v.698C7.63 4.933 6 7.559 6 10.718v5.128l-2 2.051v1.026h16v-1.026l-2-2.05z"/>
        <path id="d" d="M0 0h24v24H0z"/>
        <filter id="c" width="116.7%" height="116.7%" x="-8.3%" y="-4.2%" filterUnits="objectBoundingBox">
            <feOffset dy="1" in="SourceAlpha" result="shadowOffsetOuter1"/>
            <feGaussianBlur in="shadowOffsetOuter1" result="shadowBlurOuter1" stdDeviation=".5"/>
            <feComposite in="shadowBlurOuter1" in2="SourceAlpha" operator="out" result="shadowBlurOuter1"/>
            <feColorMatrix in="shadowBlurOuter1" values="0 0 0 0 0 0 0 0 0 0 0 0 0 0 0 0 0 0 0.0479789402 0"/>
        </filter>
    </defs>
    <g fill="none" fill-rule="evenodd">
        <path d="M0 0h24v24H0z"/>
        <mask id="b" fill="#fff">
            <use xlink:href="#a"/>
        </mask>
        <g mask="url(#b)">
            <use fill="#000" filter="url(#c)" xlink:href="#d"/>
            <path fill="#FFF" stroke="#E8E8E8" stroke-linejoin="square" d="M.5.5h23v23H.5z"/>
        </g>
    </g>
</svg>
